<svg width="92" height="35" viewBox="0 0 92 35" fill="none" xmlns="http://www.w3.org/2000/svg">
<path d="M25.375 5.41304C7.25 5.41304 4.83333 22.3297 3.625 29.5797H6.03925C6.844 25.5519 8.85869 23.3367 12.0833 22.9339C16.9167 22.3297 20.5417 18.1005 21.75 14.4755L19.9375 13.2672L21.1458 12.0589C22.3542 10.8505 23.5673 9.03804 25.375 5.41304Z" fill="#325CFE"/>
<path d="M40.453 25.203C39.5057 25.203 38.7903 25.0387 38.307 24.71C37.843 24.362 37.611 23.8013 37.611 23.028C37.611 22.9313 37.611 22.8347 37.611 22.738C37.6303 22.6413 37.6497 22.535 37.669 22.419C37.727 21.9357 37.8623 21.2977 38.075 20.505C38.307 19.693 38.6067 18.794 38.974 17.808C39.3607 16.8027 39.7957 15.778 40.279 14.734C40.7817 13.6707 41.323 12.6557 41.903 11.689C41.961 11.5923 42.106 11.37 42.338 11.022C42.5893 10.674 42.8213 10.3067 43.034 9.92C43.266 9.53333 43.382 9.253 43.382 9.079C43.382 8.905 43.266 8.86633 43.034 8.963C42.7053 9.079 42.3187 9.33033 41.874 9.717C41.4293 10.1037 40.946 10.5483 40.424 11.051C39.902 11.5537 39.351 12.0467 38.771 12.53C38.2103 12.994 37.6303 13.3903 37.031 13.719C36.451 14.0283 35.8807 14.183 35.32 14.183C35.1847 14.183 35.0397 14.1733 34.885 14.154C34.7497 14.1347 34.6047 14.096 34.45 14.038C34.1213 13.922 33.957 13.632 33.957 13.168C33.957 12.7233 34.0827 12.2013 34.334 11.602C34.6047 10.9833 34.9333 10.3937 35.32 9.833C35.4167 9.67833 35.5327 9.572 35.668 9.514C35.8033 9.43667 35.9097 9.398 35.987 9.398C36.1417 9.398 36.219 9.46567 36.219 9.601C36.219 9.659 36.19 9.73633 36.132 9.833C36.1127 9.91033 36.0837 9.978 36.045 10.036C36.0257 10.094 36.016 10.1423 36.016 10.181C36.016 10.3163 36.0837 10.413 36.219 10.471C36.3543 10.5097 36.4993 10.529 36.654 10.529C37.06 10.529 37.5917 10.3937 38.249 10.123C38.9063 9.85233 39.612 9.52367 40.366 9.137C41.1393 8.731 41.903 8.33467 42.657 7.948C43.4303 7.56133 44.1457 7.26167 44.803 7.049C45.4603 6.817 46.0017 6.73967 46.427 6.817C46.7557 6.89433 47.0457 7.12633 47.297 7.513C47.5677 7.89967 47.7417 8.238 47.819 8.528C47.8577 8.644 47.7997 8.83733 47.645 9.108C47.4903 9.37867 47.2873 9.67833 47.036 10.007C46.804 10.3357 46.572 10.645 46.34 10.935C46.108 11.225 45.934 11.4473 45.818 11.602C45.5667 11.9113 45.2767 12.2883 44.948 12.733C44.6387 13.1583 44.3293 13.5837 44.02 14.009C43.7107 14.415 43.4593 14.763 43.266 15.053C43.15 15.2463 43.092 15.4203 43.092 15.575C43.092 15.7103 43.1307 15.7297 43.208 15.633C43.73 14.879 44.339 14.0573 45.035 13.168C45.731 12.2787 46.427 11.4183 47.123 10.587C47.8383 9.73633 48.4763 9.00167 49.037 8.383C49.617 7.76433 50.0423 7.35833 50.313 7.165C50.5837 6.95233 50.8447 6.846 51.096 6.846C51.2893 6.846 51.4827 6.89433 51.676 6.991C51.8693 7.06833 52.0917 7.18433 52.343 7.339C52.749 7.55167 53.0293 7.82233 53.184 8.151C53.358 8.47967 53.445 8.83733 53.445 9.224C53.445 9.53333 53.3967 9.85233 53.3 10.181C53.2227 10.4903 53.1067 10.79 52.952 11.08C52.0433 12.878 51.2217 14.473 50.487 15.865C49.7523 17.257 49.1627 18.5717 48.718 19.809C48.5247 20.4083 48.37 20.998 48.254 21.578C48.1573 22.1387 48.109 22.651 48.109 23.115C48.109 23.8883 48.2153 24.4103 48.428 24.681C48.37 24.797 48.2347 24.884 48.022 24.942C47.8287 25 47.6257 25.029 47.413 25.029C46.891 25.029 46.4463 24.8743 46.079 24.565C45.731 24.2557 45.4603 23.869 45.267 23.405C45.093 22.9217 45.006 22.4287 45.006 21.926C45.006 21.1913 45.1123 20.3987 45.325 19.548C45.557 18.678 45.8373 17.8177 46.166 16.967C46.514 16.1163 46.862 15.3237 47.21 14.589C47.558 13.8543 47.848 13.226 48.08 12.704C48.3507 12.124 48.5827 11.602 48.776 11.138C48.9693 10.6547 49.1047 10.297 49.182 10.065C48.5633 10.6257 47.8577 11.312 47.065 12.124C46.2917 12.9167 45.5087 13.7963 44.716 14.763C43.9427 15.7103 43.2273 16.706 42.57 17.75C41.9127 18.794 41.381 19.8477 40.975 20.911C40.569 21.955 40.366 22.97 40.366 23.956C40.366 24.4007 40.4723 24.7487 40.685 25C40.7237 25.0773 40.743 25.116 40.743 25.116C40.743 25.174 40.6463 25.203 40.453 25.203ZM56.4556 25.203C55.2182 25.203 54.2516 25 53.5556 24.594C52.8596 24.188 52.5116 23.405 52.5116 22.245C52.5116 21.433 52.6372 20.5823 52.8886 19.693C53.1592 18.7843 53.5362 17.9047 54.0196 17.054C54.5029 16.2033 55.0732 15.43 55.7306 14.734C56.3879 14.038 57.1129 13.487 57.9056 13.081C58.6982 12.6557 59.5392 12.443 60.4286 12.443C61.0086 12.443 61.5596 12.4913 62.0816 12.588C62.6036 12.6847 63.0289 12.907 63.3576 13.255C63.6862 13.5837 63.8506 14.1057 63.8506 14.821C63.8506 15.575 63.6476 16.5513 63.2416 17.75C62.8356 18.9487 62.2846 20.1183 61.5886 21.259C61.5499 21.4137 61.5306 21.5683 61.5306 21.723C61.5306 21.9357 61.5692 22.1483 61.6466 22.361C61.7432 22.5737 61.9076 22.68 62.1396 22.68C62.4489 22.68 62.7679 22.4673 63.0966 22.042C63.4446 21.5587 63.8022 20.9787 64.1696 20.302C64.5369 19.6253 64.8172 19.0743 65.0106 18.649C65.0492 18.533 65.1362 18.475 65.2716 18.475C65.4069 18.475 65.5229 18.533 65.6196 18.649C65.7356 18.765 65.7452 18.9003 65.6486 19.055C65.4939 19.345 65.2909 19.751 65.0396 20.273C64.7882 20.7757 64.4982 21.288 64.1696 21.81C63.8409 22.332 63.4832 22.7477 63.0966 23.057C62.8066 23.289 62.4972 23.405 62.1686 23.405C61.7819 23.405 61.4919 23.318 61.2986 23.144C61.1052 22.9507 60.9506 22.68 60.8346 22.332C60.2159 23.1633 59.5296 23.8497 58.7756 24.391C58.0216 24.9323 57.2482 25.203 56.4556 25.203ZM55.9046 24.304C56.1172 24.304 56.4072 24.0237 56.7746 23.463C57.1419 22.9023 57.5382 22.187 57.9636 21.317C58.3889 20.4277 58.8046 19.5287 59.2106 18.62C59.2879 18.4653 59.4136 18.185 59.5876 17.779C59.7616 17.3537 59.9452 16.8897 60.1386 16.387C60.3319 15.865 60.4962 15.3623 60.6316 14.879C60.7669 14.3957 60.8346 14.009 60.8346 13.719C60.8346 13.3903 60.7379 13.226 60.5446 13.226C60.3706 13.226 60.1482 13.4 59.8776 13.748C59.6069 14.0767 59.3072 14.5117 58.9786 15.053C58.6499 15.5943 58.3309 16.1743 58.0216 16.793C57.7122 17.4117 57.4416 17.9917 57.2096 18.533C56.9776 19.0743 56.7359 19.6833 56.4846 20.36C56.2332 21.0367 56.0206 21.6843 55.8466 22.303C55.6919 22.9023 55.6146 23.3857 55.6146 23.753C55.6146 24.1203 55.7112 24.304 55.9046 24.304ZM66.8165 25.232C66.1205 25.232 65.4922 25.0387 64.9315 24.652C64.3708 24.246 64.0905 23.5983 64.0905 22.709C64.0905 22.013 64.2258 21.1623 64.4965 20.157C64.7672 19.1517 65.1248 18.127 65.5695 17.083C66.0142 16.0197 66.4975 15.0627 67.0195 14.212H65.7725C65.6565 14.212 65.5985 14.1637 65.5985 14.067C65.5985 13.9897 65.6468 13.9027 65.7435 13.806C65.8402 13.69 65.9562 13.6127 66.0915 13.574C66.4008 13.4773 66.7972 13.3033 67.2805 13.052C67.7832 12.7813 68.3052 12.472 68.8465 12.124C69.3878 11.776 69.9002 11.428 70.3835 11.08C70.8668 10.732 71.2535 10.4323 71.5435 10.181C71.7175 10.0263 71.9012 9.92 72.0945 9.862C72.3072 9.804 72.5102 9.775 72.7035 9.775C73.0322 9.775 73.2835 9.833 73.4575 9.949C73.6315 10.065 73.6315 10.181 73.4575 10.297C73.3028 10.3937 73.0902 10.6353 72.8195 11.022C72.5488 11.4087 72.2685 11.834 71.9785 12.298C71.7078 12.762 71.4662 13.1777 71.2535 13.545H73.4575C73.4962 13.545 73.5155 13.574 73.5155 13.632C73.5155 13.7287 73.4768 13.8543 73.3995 14.009C73.3222 14.1443 73.2448 14.212 73.1675 14.212H70.8765C70.4898 14.8887 70.0645 15.662 69.6005 16.532C69.1365 17.402 68.6918 18.2913 68.2665 19.2C67.8605 20.0893 67.5222 20.9207 67.2515 21.694C66.9808 22.448 66.8455 23.0473 66.8455 23.492C66.8455 23.9753 67.0678 24.217 67.5125 24.217C67.9765 24.217 68.4985 23.9947 69.0785 23.55C69.5618 23.144 70.0162 22.6413 70.4415 22.042C70.8475 21.4813 71.2052 20.9013 71.5145 20.302C71.8432 19.7027 72.1138 19.1903 72.3265 18.765C72.4038 18.6297 72.5102 18.562 72.6455 18.562C72.7808 18.562 72.8872 18.62 72.9645 18.736C73.0612 18.8327 73.0708 18.9583 72.9935 19.113C72.7035 19.693 72.3362 20.3697 71.8915 21.143C71.4468 21.9163 70.9732 22.622 70.4705 23.26C70.0645 23.7627 69.6682 24.1493 69.2815 24.42C68.9142 24.6713 68.5178 24.8647 68.0925 25C67.6865 25.1547 67.2612 25.232 66.8165 25.232ZM75.6588 25.435C74.2474 25.435 73.2228 25.116 72.5848 24.478C71.9661 23.84 71.6568 22.999 71.6568 21.955C71.6568 21.1623 71.8211 20.2923 72.1498 19.345C72.4011 18.5717 72.7394 17.7887 73.1648 16.996C73.5901 16.184 74.0831 15.4397 74.6438 14.763C75.2044 14.067 75.8231 13.516 76.4998 13.11C77.1764 12.6847 77.8918 12.472 78.6458 12.472C79.6124 12.472 80.3954 12.6267 80.9948 12.936C81.6134 13.226 81.9228 13.7093 81.9228 14.386C81.9228 14.8887 81.7198 15.517 81.3138 16.271C80.7724 17.315 79.9798 18.1753 78.9358 18.852C77.8918 19.5287 76.7221 19.9153 75.4268 20.012C75.1368 20.8047 74.9628 21.4523 74.9048 21.955C74.8854 22.0517 74.8758 22.1483 74.8758 22.245C74.8758 22.3223 74.8758 22.4093 74.8758 22.506C74.8758 23.144 75.0208 23.608 75.3108 23.898C75.6008 24.1687 75.9584 24.304 76.3838 24.304C77.1764 24.304 77.8724 24.101 78.4718 23.695C79.0711 23.289 79.5931 22.7767 80.0378 22.158C80.5018 21.5393 80.8981 20.9207 81.2268 20.302C81.4201 19.954 81.5844 19.635 81.7198 19.345C81.8551 19.0357 81.9614 18.8133 82.0388 18.678C82.1354 18.5233 82.2418 18.446 82.3578 18.446C82.4738 18.446 82.5801 18.5137 82.6768 18.649C82.7734 18.765 82.7831 18.9003 82.7058 19.055C82.4544 19.5577 82.1064 20.2247 81.6618 21.056C81.2171 21.8873 80.7144 22.622 80.1538 23.26C79.5351 23.9947 78.8681 24.5457 78.1528 24.913C77.4568 25.261 76.6254 25.435 75.6588 25.435ZM75.8038 19.171C76.6738 18.8423 77.4374 18.2527 78.0948 17.402C78.7714 16.5513 79.2258 15.6137 79.4578 14.589C79.4771 14.4923 79.4868 14.4053 79.4868 14.328C79.5061 14.2507 79.5158 14.1733 79.5158 14.096C79.5158 13.7093 79.3998 13.516 79.1678 13.516C78.9744 13.516 78.7714 13.6513 78.5588 13.922C78.2494 14.2893 77.9208 14.792 77.5728 15.43C77.2248 16.0487 76.9154 16.6577 76.6448 17.257C76.3741 17.8563 76.1711 18.3107 76.0358 18.62L75.8038 19.171ZM84.6193 25.203C83.44 25.203 82.4637 24.855 81.6903 24.159C80.917 23.463 80.5303 22.4963 80.5303 21.259C80.5303 20.8337 80.5787 20.389 80.6753 19.925C80.772 19.461 80.9267 19.0647 81.1393 18.736C81.352 18.4073 81.6323 18.243 81.9803 18.243C82.193 18.243 82.3477 18.3107 82.4443 18.446C82.6763 18.0013 82.9277 17.5567 83.1983 17.112C83.469 16.6673 83.7397 16.213 84.0103 15.749C84.3197 15.2463 84.6773 14.6953 85.0833 14.096C85.5087 13.4773 85.992 12.936 86.5333 12.472C87.0747 11.9887 87.6643 11.718 88.3023 11.66C88.3797 11.6407 88.457 11.631 88.5343 11.631C88.631 11.631 88.718 11.631 88.7953 11.631C89.008 11.631 89.2303 11.6407 89.4623 11.66C89.6943 11.6793 89.8683 11.6987 89.9843 11.718C90.023 11.7373 90.052 11.7953 90.0713 11.892C90.0907 11.9887 90.0423 12.037 89.9263 12.037C89.849 12.037 89.6943 12.095 89.4623 12.211C89.2303 12.3077 89.095 12.5493 89.0563 12.936C89.0177 14.2893 88.9307 15.6427 88.7953 16.996C88.6793 18.3493 88.4957 19.4803 88.2443 20.389C88.1283 20.853 87.9447 21.3557 87.6933 21.897C87.442 22.4383 87.1423 22.9217 86.7943 23.347C86.4463 23.7723 86.079 24.0623 85.6923 24.217C86.079 24.217 86.485 24.101 86.9103 23.869C87.355 23.6177 87.761 23.318 88.1283 22.97C88.515 22.622 88.805 22.3127 88.9983 22.042C89.4237 21.4427 89.8103 20.8143 90.1583 20.157C90.5257 19.4803 90.7963 18.9583 90.9703 18.591C91.0283 18.4943 91.096 18.446 91.1733 18.446C91.27 18.446 91.357 18.504 91.4343 18.62C91.5117 18.736 91.5503 18.8617 91.5503 18.997C91.5503 19.0357 91.5407 19.0743 91.5213 19.113C91.5213 19.1517 91.5117 19.1903 91.4923 19.229C91.1443 19.925 90.7577 20.6307 90.3323 21.346C89.9263 22.042 89.4527 22.6897 88.9113 23.289C88.37 23.869 87.7513 24.333 87.0553 24.681C86.3593 25.029 85.5473 25.203 84.6193 25.203ZM82.7343 23.376C82.947 23.376 83.1597 23.3083 83.3723 23.173C83.585 23.0377 83.759 22.825 83.8943 22.535C84.1843 21.897 84.4453 21.1623 84.6773 20.331C84.9093 19.4997 85.1123 18.678 85.2863 17.866C85.4603 17.0347 85.6053 16.3 85.7213 15.662C85.8567 15.0047 85.9533 14.531 86.0113 14.241C85.7213 14.589 85.3637 15.082 84.9383 15.72C84.5323 16.358 84.136 16.996 83.7493 17.634C83.382 18.272 83.1017 18.7843 82.9083 19.171C82.9277 19.6157 82.7537 20.012 82.3863 20.36C82.019 20.708 81.7 21.0657 81.4293 21.433V21.752C81.4293 21.8293 81.4293 21.926 81.4293 22.042C81.4487 22.158 81.468 22.2643 81.4873 22.361C81.584 22.6703 81.7483 22.9217 81.9803 23.115C82.2317 23.289 82.483 23.376 82.7343 23.376Z" fill="black"/>
</svg>
